<svg width="25" height="22" viewBox="0 0 25 22" fill="none" xmlns="http://www.w3.org/2000/svg">
<path d="M0 8.77727C0.306 16.2233 8.16 17.8553 8.16 17.8553C8.16 17.8553 8.16 13.5429 12.342 13.464C17.646 13.3639 16.728 21.7313 16.728 21.7313C16.728 21.7313 25.7701 14.5728 24.582 8.77727C24.072 3.57527 17.9428 -0.159875 11.934 0.00526754C6.15209 0.164175 0.408 3.47327 0 8.77727Z" fill="#EFD9B0"/>
<path d="M14.3826 5.31055H12.7506H11.9346H10.3945C8.55634 5.31055 7.08072 6.82773 7.13176 8.66518L7.15443 9.48118C7.2035 11.2479 8.64981 12.6545 10.4172 12.6545H14.3826C16.1852 12.6545 17.6466 11.1932 17.6466 9.39054V8.57455C17.6466 6.77189 16.1852 5.31055 14.3826 5.31055Z" fill="#131313" stroke="#131313" stroke-width="0.204"/>
<path d="M12.3423 5.20857V3.88257" stroke="#131313" stroke-width="0.612"/>
<circle cx="12.3424" cy="3.16854" r="0.714" fill="#131313" stroke="#131313" stroke-width="0.204"/>
<circle cx="9.99646" cy="8.26868" r="1.224" fill="#EFD9B0"/>
<circle cx="14.6884" cy="8.26868" r="1.224" fill="#EFD9B0"/>
<path d="M10.9146 10.4106C10.9146 10.4106 11.5266 10.9206 12.4446 10.9206C13.3626 10.9206 13.8726 10.4106 13.8726 10.4106" stroke="#EFD9B0" stroke-width="0.408"/>
</svg>
