<svg width="64" height="53" viewBox="0 0 64 53" fill="none" xmlns="http://www.w3.org/2000/svg">
<path d="M3.12401 35.26L4.21375 37.7367C6.01509 41.8307 9.44784 44.9837 13.6798 46.4315L26.5759 50.8433C29.6894 51.9085 33.0556 51.9877 36.2158 51.0702L48.6559 47.4586C50.3405 46.9695 51.9332 46.2067 53.3703 45.2008L57.1754 42.5372C61.4526 39.5432 64 34.6505 64 29.4295V26.4044C64 24.1857 63.5386 21.9913 62.645 19.9605L59.9721 13.8856C58.0631 9.54716 54.3289 6.27837 49.776 4.96041L37.5721 1.42773C34.3646 0.499228 30.9469 0.59755 27.7981 1.70891L16.7595 5.60487C12.9783 6.93941 9.83604 9.6451 7.95481 13.1862L3.6392 21.3097C1.34099 25.6358 1.15115 30.7763 3.12401 35.26Z" fill="#424242"/>
<path d="M6.12402 35.06L6.66375 36.2867C8.46509 40.3807 11.8978 43.5337 16.1298 44.9815L27.1259 48.7433C30.2394 49.8085 33.6056 49.8877 36.7658 48.9702L47.6559 45.8086C49.3405 45.3195 50.9332 44.5567 52.3703 43.5508L55.1754 41.5872C59.4526 38.5932 62 33.7005 62 28.4795V26.6044C62 24.3857 61.5386 22.1913 60.645 20.1605L58.5221 15.3356C56.6131 10.9972 52.8789 7.72836 48.326 6.41041L38.0221 3.42773C34.8146 2.49923 31.3969 2.59755 28.2481 3.70891L18.9095 7.00487C15.1283 8.33941 11.986 11.0451 10.1048 14.5862L6.63921 21.1097C4.34099 25.4358 4.15115 30.5763 6.12402 35.06Z" fill="#131313"/>
<path d="M6.12402 35.06L6.66375 36.2867C8.46509 40.3807 11.8978 43.5337 16.1298 44.9815L27.1259 48.7433C30.2394 49.8085 33.6056 49.8877 36.7658 48.9702L47.6559 45.8086C49.3405 45.3195 50.9332 44.5567 52.3703 43.5508L55.1754 41.5872C59.4526 38.5932 62 33.7005 62 28.4795V26.6044C62 24.3857 61.5386 22.1913 60.645 20.1605L58.5221 15.3356C56.6131 10.9972 52.8789 7.72836 48.326 6.41041L38.0221 3.42773C34.8146 2.49923 31.3969 2.59755 28.2481 3.70891L18.9095 7.00487C15.1283 8.33941 11.986 11.0451 10.1048 14.5862L6.63921 21.1097C4.34099 25.4358 4.15115 30.5763 6.12402 35.06Z" fill="#131313"/>
<path d="M21.3334 27C20.7811 27 20.3334 26.5523 20.3334 26C20.3334 25.4477 20.7811 25 21.3334 25H33.6667V18C33.6667 17.5955 33.9103 17.2309 34.284 17.0761C34.6577 16.9213 35.0878 17.0069 35.3738 17.2929L43.3738 25.2929C43.5613 25.4804 43.6667 25.7348 43.6667 26C43.6667 26.2652 43.5613 26.5195 43.3738 26.7071L35.3738 34.7071C35.0878 34.9931 34.6577 35.0786 34.284 34.9239C33.9103 34.7691 33.6667 34.4044 33.6667 34V27H21.3334Z" fill="#EFD9B0"/>
</svg>
